<?xml version="1.0" standalone="no"?>
<!DOCTYPE svg PUBLIC "-//W3C//DTD SVG 20010904//EN"
 "http://www.w3.org/TR/2001/REC-SVG-20010904/DTD/svg10.dtd">
<svg version="1.0" xmlns="http://www.w3.org/2000/svg"
 width="1024.000000pt" height="1024.000000pt" viewBox="0 0 1024.000000 1024.000000"
 preserveAspectRatio="xMidYMid meet">

<g transform="translate(0.000000,1024.000000) scale(0.100000,-0.100000)"
fill="#000000" stroke="none">
<path d="M0 5120 l0 -5120 5120 0 5120 0 0 5120 0 5120 -5120 0 -5120 0 0
-5120z m6745 3452 c318 -89 539 -317 620 -637 l25 -99 -3 -1476 c-3 -1661 5
-1507 -82 -1685 -104 -212 -276 -366 -496 -440 -166 -57 -109 -55 -1678 -55
-1544 0 -1553 0 -1694 49 -148 52 -273 140 -364 257 -112 144 -133 178 -164
257 -61 160 -59 94 -59 1663 0 1577 -3 1499 61 1664 83 216 277 403 494 476
168 55 80 53 1730 51 l1530 -2 80 -23z m1250 -4806 c69 -18 104 -38 154 -86
41 -40 101 -148 101 -182 0 -13 -18 -23 -68 -37 -112 -34 -132 -36 -132 -16 0
37 -44 95 -88 116 -36 18 -56 21 -112 17 -95 -7 -143 -41 -190 -131 -30 -60
-35 -79 -38 -161 -8 -168 33 -270 132 -331 45 -27 57 -30 137 -30 73 0 92 3
116 21 39 29 60 70 67 132 l7 52 -108 0 -108 0 3 85 3 85 195 0 c107 0 197 0
202 0 12 0 7 -291 -6 -336 -40 -135 -168 -218 -356 -231 -237 -16 -411 108
-482 342 -25 83 -25 277 0 360 52 171 164 289 315 331 61 16 194 17 256 0z
m-5290 -96 l0 -91 -137 -1 -138 -1 0 -408 0 -408 -105 -3 -105 -3 0 410 0 410
-140 0 -140 0 0 92 0 93 198 3 c108 2 280 2 382 0 l185 -3 0 -90z m710 62
c123 -45 183 -150 172 -300 -7 -92 -37 -154 -94 -198 -23 -18 -47 -34 -52 -35
-6 -2 39 -102 100 -222 l110 -217 -119 0 -118 0 -91 190 -92 190 -70 0 -71 0
0 -190 0 -190 -105 0 -105 0 0 493 c0 272 3 497 8 501 4 4 111 6 237 4 206 -4
236 -6 290 -26z m1068 -365 c77 -215 156 -441 177 -500 l39 -108 -112 3 -111
3 -34 105 -33 105 -177 0 -176 0 -34 -107 -33 -108 -109 0 -109 0 15 43 c9 23
84 240 169 482 84 242 156 448 160 458 6 15 22 17 119 17 l111 0 138 -393z
m939 365 c112 -41 180 -103 230 -208 44 -93 61 -191 55 -310 -12 -219 -101
-361 -267 -425 -68 -26 -183 -35 -397 -31 l-163 2 0 501 0 501 243 -4 c215 -4
248 -7 299 -26z m708 -472 l0 -500 -105 0 -105 0 0 500 0 500 105 0 105 0 0
-500z m645 186 l210 -314 3 314 2 315 103 -3 102 -3 3 -497 2 -498 -102 0
-103 0 -179 270 c-99 149 -194 294 -210 323 l-31 52 -3 -322 -2 -323 -105 0
-105 0 0 500 0 500 103 0 102 0 210 -314z m-3292 -1054 c36 -16 84 -49 107
-72 84 -84 137 -250 126 -392 -21 -259 -174 -418 -405 -418 -228 0 -372 138
-404 388 -28 214 58 414 209 488 78 38 107 44 210 40 77 -3 102 -8 157 -34z
m-783 -324 c0 -194 -4 -358 -10 -378 -19 -70 -66 -129 -124 -156 -131 -60
-312 -33 -393 59 -33 37 -68 128 -60 151 3 8 30 23 59 34 99 36 93 37 107 -7
16 -56 61 -91 116 -91 24 0 56 5 70 12 53 24 55 39 55 393 l0 325 90 0 90 0 0
-342z m1402 35 c3 -289 4 -310 23 -343 30 -50 78 -75 147 -75 62 0 94 17 132
69 20 26 21 44 26 339 l5 312 93 3 92 3 0 -289 c0 -159 -4 -314 -10 -343 -33
-180 -169 -279 -367 -267 -174 10 -292 110 -322 272 -12 64 -16 608 -4 619 3
4 46 7 94 7 l88 0 3 -307z m1207 283 c93 -34 133 -82 152 -179 23 -119 -20
-237 -103 -279 l-37 -19 19 -32 c35 -62 170 -331 170 -339 0 -4 -46 -8 -103
-8 l-103 0 -78 165 -79 166 -61 -3 -61 -3 -3 -162 -2 -163 -90 0 -90 0 0 433
c0 239 3 437 8 441 4 5 99 6 212 3 158 -3 215 -8 249 -21z m743 -259 l188
-282 0 283 0 282 90 0 90 0 -2 -442 -3 -443 -89 2 c-49 1 -90 4 -91 5 -9 10
-335 509 -348 533 -15 28 -16 12 -17 -252 l0 -283 -90 0 -90 0 0 440 0 440 88
0 87 -1 187 -282z m1106 81 c39 -112 107 -307 151 -435 45 -128 81 -234 81
-238 0 -3 -42 -5 -94 -5 -107 0 -93 -12 -136 121 -21 66 -21 66 -63 72 -23 2
-90 5 -149 5 -124 1 -112 10 -149 -115 l-24 -83 -99 0 c-74 0 -97 3 -93 13 2
6 70 200 151 431 80 230 149 423 152 427 3 5 49 9 103 9 l98 0 71 -202z m582
-153 l0 -355 180 0 180 0 0 -85 0 -85 -270 0 -270 0 0 440 0 440 90 0 90 0 0
-355z"/>
<path d="M3770 8420 c-188 -5 -211 -8 -278 -32 -106 -38 -176 -83 -257 -163
-117 -117 -176 -242 -195 -408 -8 -62 -10 -549 -8 -1487 4 -1568 -3 -1432 81
-1595 58 -113 192 -247 297 -298 154 -74 49 -69 1500 -79 1361 -10 1664 -5
1785 28 177 47 363 201 443 364 83 169 77 38 77 1640 0 1331 -1 1430 -18 1494
-65 253 -276 461 -532 523 -64 16 -183 17 -1380 18 -720 1 -1402 -1 -1515 -5z
m2378 -342 c8 -8 12 -63 12 -180 l0 -168 105 0 105 0 0 -625 0 -625 -105 0
-105 0 -2 -182 -3 -182 -33 -10 c-26 -7 -36 -5 -52 9 -19 17 -20 31 -20 191
l0 173 -102 3 -103 3 0 620 0 620 100 5 100 5 5 168 c5 181 7 187 61 187 14 0
30 -5 37 -12z m-1992 -862 c18 -13 19 -28 19 -190 l0 -175 60 -6 c33 -3 80 -6
105 -8 l45 -2 3 -613 2 -612 -26 -10 c-14 -6 -61 -10 -104 -10 l-79 0 -3 -176
c-3 -160 -5 -177 -22 -190 -26 -18 -61 -18 -80 2 -13 13 -16 45 -16 192 l0
177 -90 -4 c-61 -2 -95 1 -105 9 -13 11 -15 97 -15 619 0 459 3 610 12 619 8
8 46 12 105 12 l93 0 0 174 c0 169 1 175 22 190 28 20 49 20 74 2z m2491
-2061 c25 -17 39 -71 29 -111 -15 -56 58 -54 -1579 -54 -1189 0 -1507 3 -1520
13 -34 24 -34 118 -1 151 14 14 167 16 1532 16 1345 0 1520 -2 1539 -15z"/>
<path d="M3090 3445 l0 -138 108 5 c59 2 118 10 130 17 45 24 67 126 39 180
-22 45 -70 64 -178 69 l-99 5 0 -138z"/>
<path d="M4206 3444 c-15 -49 -41 -131 -58 -182 -16 -51 -28 -95 -27 -97 2 -1
55 -5 116 -7 110 -3 113 -3 106 17 -3 11 -30 96 -59 189 l-52 170 -26 -90z"/>
<path d="M5090 3261 l0 -311 101 0 c55 0 121 5 146 12 99 25 156 126 156 282
1 155 -43 255 -129 296 -39 20 -69 25 -161 28 l-113 5 0 -312z"/>
<path d="M3242 2249 c-97 -29 -160 -163 -149 -317 11 -159 76 -241 198 -250
69 -5 111 9 156 51 92 86 108 310 32 434 -45 72 -151 109 -237 82z"/>
<path d="M5021 2131 l1 -109 37 -6 c54 -9 111 -7 153 5 45 12 68 49 68 109 0
86 -37 110 -169 110 l-91 0 1 -109z"/>
<path d="M6941 2073 c-24 -81 -46 -156 -49 -165 -4 -16 5 -18 95 -18 l100 0
-49 158 c-26 86 -49 161 -51 165 -1 4 -22 -59 -46 -140z"/>
</g>
</svg>
